<mxfile host="Electron" agent="Mozilla/5.0 (Windows NT 10.0; Win64; x64) AppleWebKit/537.36 (KHTML, like Gecko) draw.io/26.0.4 Chrome/128.0.6613.186 Electron/32.2.5 Safari/537.36" version="26.0.4">
  <diagram id="C5RBs43oDa-KdzZeNtuy" name="Page-1">
    <mxGraphModel dx="1434" dy="844" grid="1" gridSize="10" guides="1" tooltips="1" connect="1" arrows="1" fold="1" page="1" pageScale="1" pageWidth="827" pageHeight="1169" math="0" shadow="0">
      <root>
        <mxCell id="WIyWlLk6GJQsqaUBKTNV-0" />
        <mxCell id="WIyWlLk6GJQsqaUBKTNV-1" parent="WIyWlLk6GJQsqaUBKTNV-0" />
        <mxCell id="7OQRVRhavZz69PWNACkl-0" value="start" style="strokeWidth=2;html=1;shape=mxgraph.flowchart.terminator;whiteSpace=wrap;" vertex="1" parent="WIyWlLk6GJQsqaUBKTNV-1">
          <mxGeometry x="90" y="40" width="100" height="60" as="geometry" />
        </mxCell>
        <mxCell id="7OQRVRhavZz69PWNACkl-23" style="edgeStyle=orthogonalEdgeStyle;rounded=0;orthogonalLoop=1;jettySize=auto;html=1;entryX=0.5;entryY=0;entryDx=0;entryDy=0;" edge="1" parent="WIyWlLk6GJQsqaUBKTNV-1" source="7OQRVRhavZz69PWNACkl-1" target="7OQRVRhavZz69PWNACkl-7">
          <mxGeometry relative="1" as="geometry" />
        </mxCell>
        <mxCell id="7OQRVRhavZz69PWNACkl-1" value="Declarations&lt;div&gt;num hourlyRate = 30&lt;/div&gt;&lt;div&gt;num hoursProjected&lt;/div&gt;&lt;div&gt;num costOfMaterials&lt;/div&gt;&lt;div&gt;num costOfJob&lt;/div&gt;&lt;div&gt;num percentageOfMaterials&lt;/div&gt;&lt;div&gt;num STOP = 0&lt;/div&gt;&lt;div&gt;string HEADING = &quot;projected cost for&lt;span style=&quot;background-color: transparent; color: light-dark(rgb(0, 0, 0), rgb(255, 255, 255));&quot;&gt;&amp;nbsp;remodeling&quot;&lt;/span&gt;&lt;/div&gt;&lt;div&gt;&lt;span style=&quot;background-color: transparent; color: light-dark(rgb(0, 0, 0), rgb(255, 255, 255));&quot;&gt;string ENDLINE = &quot;end of calculation restart program if you want to do more calculations&quot;&lt;/span&gt;&lt;/div&gt;" style="rounded=0;whiteSpace=wrap;html=1;" vertex="1" parent="WIyWlLk6GJQsqaUBKTNV-1">
          <mxGeometry x="30" y="120" width="240" height="230" as="geometry" />
        </mxCell>
        <mxCell id="7OQRVRhavZz69PWNACkl-2" value="input hoursProjected" style="shape=parallelogram;perimeter=parallelogramPerimeter;whiteSpace=wrap;html=1;fixedSize=1;" vertex="1" parent="WIyWlLk6GJQsqaUBKTNV-1">
          <mxGeometry x="735" y="300" width="140" height="60" as="geometry" />
        </mxCell>
        <mxCell id="7OQRVRhavZz69PWNACkl-30" style="edgeStyle=orthogonalEdgeStyle;rounded=0;orthogonalLoop=1;jettySize=auto;html=1;" edge="1" parent="WIyWlLk6GJQsqaUBKTNV-1" source="7OQRVRhavZz69PWNACkl-3" target="7OQRVRhavZz69PWNACkl-4">
          <mxGeometry relative="1" as="geometry" />
        </mxCell>
        <mxCell id="7OQRVRhavZz69PWNACkl-3" value="input costOfMaterials" style="shape=parallelogram;perimeter=parallelogramPerimeter;whiteSpace=wrap;html=1;fixedSize=1;" vertex="1" parent="WIyWlLk6GJQsqaUBKTNV-1">
          <mxGeometry x="264" y="720" width="150" height="60" as="geometry" />
        </mxCell>
        <mxCell id="7OQRVRhavZz69PWNACkl-31" style="edgeStyle=orthogonalEdgeStyle;rounded=0;orthogonalLoop=1;jettySize=auto;html=1;entryX=0.5;entryY=0;entryDx=0;entryDy=0;" edge="1" parent="WIyWlLk6GJQsqaUBKTNV-1" source="7OQRVRhavZz69PWNACkl-4" target="7OQRVRhavZz69PWNACkl-5">
          <mxGeometry relative="1" as="geometry" />
        </mxCell>
        <mxCell id="7OQRVRhavZz69PWNACkl-4" value="percentageOfMaterials = costOfMaterials * 1.2" style="rounded=0;whiteSpace=wrap;html=1;" vertex="1" parent="WIyWlLk6GJQsqaUBKTNV-1">
          <mxGeometry x="275" y="810" width="130" height="60" as="geometry" />
        </mxCell>
        <mxCell id="7OQRVRhavZz69PWNACkl-5" value="costOfJob = hoursProjected * hourlyRate + percentageOfMaterials&amp;nbsp;" style="rounded=0;whiteSpace=wrap;html=1;" vertex="1" parent="WIyWlLk6GJQsqaUBKTNV-1">
          <mxGeometry x="274" y="900" width="140" height="60" as="geometry" />
        </mxCell>
        <mxCell id="7OQRVRhavZz69PWNACkl-33" style="edgeStyle=orthogonalEdgeStyle;rounded=0;orthogonalLoop=1;jettySize=auto;html=1;exitX=0.5;exitY=1;exitDx=0;exitDy=0;entryX=0.5;entryY=0;entryDx=0;entryDy=0;" edge="1" parent="WIyWlLk6GJQsqaUBKTNV-1" source="7OQRVRhavZz69PWNACkl-6" target="7OQRVRhavZz69PWNACkl-15">
          <mxGeometry relative="1" as="geometry" />
        </mxCell>
        <mxCell id="7OQRVRhavZz69PWNACkl-6" value="output costOfJob" style="shape=parallelogram;perimeter=parallelogramPerimeter;whiteSpace=wrap;html=1;fixedSize=1;" vertex="1" parent="WIyWlLk6GJQsqaUBKTNV-1">
          <mxGeometry x="279" y="990" width="120" height="60" as="geometry" />
        </mxCell>
        <mxCell id="7OQRVRhavZz69PWNACkl-24" style="edgeStyle=orthogonalEdgeStyle;rounded=0;orthogonalLoop=1;jettySize=auto;html=1;entryX=0.5;entryY=0;entryDx=0;entryDy=0;" edge="1" parent="WIyWlLk6GJQsqaUBKTNV-1" source="7OQRVRhavZz69PWNACkl-7" target="7OQRVRhavZz69PWNACkl-8">
          <mxGeometry relative="1" as="geometry" />
        </mxCell>
        <mxCell id="7OQRVRhavZz69PWNACkl-7" value="houseKeeping()" style="shape=process;whiteSpace=wrap;html=1;backgroundOutline=1;" vertex="1" parent="WIyWlLk6GJQsqaUBKTNV-1">
          <mxGeometry x="90" y="400" width="120" height="60" as="geometry" />
        </mxCell>
        <mxCell id="7OQRVRhavZz69PWNACkl-25" style="edgeStyle=orthogonalEdgeStyle;rounded=0;orthogonalLoop=1;jettySize=auto;html=1;exitX=0.5;exitY=1;exitDx=0;exitDy=0;entryX=0.5;entryY=0;entryDx=0;entryDy=0;" edge="1" parent="WIyWlLk6GJQsqaUBKTNV-1" source="7OQRVRhavZz69PWNACkl-8" target="7OQRVRhavZz69PWNACkl-9">
          <mxGeometry relative="1" as="geometry" />
        </mxCell>
        <mxCell id="7OQRVRhavZz69PWNACkl-27" style="edgeStyle=orthogonalEdgeStyle;rounded=0;orthogonalLoop=1;jettySize=auto;html=1;entryX=0;entryY=0.5;entryDx=0;entryDy=0;" edge="1" parent="WIyWlLk6GJQsqaUBKTNV-1" source="7OQRVRhavZz69PWNACkl-8" target="7OQRVRhavZz69PWNACkl-10">
          <mxGeometry relative="1" as="geometry" />
        </mxCell>
        <mxCell id="7OQRVRhavZz69PWNACkl-8" value="number not equal to 0&amp;nbsp;" style="rhombus;whiteSpace=wrap;html=1;" vertex="1" parent="WIyWlLk6GJQsqaUBKTNV-1">
          <mxGeometry x="80" y="507.5" width="140" height="125" as="geometry" />
        </mxCell>
        <mxCell id="7OQRVRhavZz69PWNACkl-9" value="endOfJob()" style="shape=process;whiteSpace=wrap;html=1;backgroundOutline=1;" vertex="1" parent="WIyWlLk6GJQsqaUBKTNV-1">
          <mxGeometry x="90" y="670" width="120" height="60" as="geometry" />
        </mxCell>
        <mxCell id="7OQRVRhavZz69PWNACkl-10" value="detailLoop()" style="shape=process;whiteSpace=wrap;html=1;backgroundOutline=1;" vertex="1" parent="WIyWlLk6GJQsqaUBKTNV-1">
          <mxGeometry x="279" y="540" width="120" height="60" as="geometry" />
        </mxCell>
        <mxCell id="7OQRVRhavZz69PWNACkl-11" value="stop" style="strokeWidth=2;html=1;shape=mxgraph.flowchart.terminator;whiteSpace=wrap;" vertex="1" parent="WIyWlLk6GJQsqaUBKTNV-1">
          <mxGeometry x="100" y="780" width="100" height="60" as="geometry" />
        </mxCell>
        <mxCell id="7OQRVRhavZz69PWNACkl-35" style="edgeStyle=orthogonalEdgeStyle;rounded=0;orthogonalLoop=1;jettySize=auto;html=1;exitX=0.5;exitY=1;exitDx=0;exitDy=0;exitPerimeter=0;entryX=0.5;entryY=0;entryDx=0;entryDy=0;" edge="1" parent="WIyWlLk6GJQsqaUBKTNV-1" source="7OQRVRhavZz69PWNACkl-12" target="7OQRVRhavZz69PWNACkl-18">
          <mxGeometry relative="1" as="geometry" />
        </mxCell>
        <mxCell id="7OQRVRhavZz69PWNACkl-12" value="houseKeeping()" style="strokeWidth=2;html=1;shape=mxgraph.flowchart.terminator;whiteSpace=wrap;" vertex="1" parent="WIyWlLk6GJQsqaUBKTNV-1">
          <mxGeometry x="755" y="140" width="100" height="60" as="geometry" />
        </mxCell>
        <mxCell id="7OQRVRhavZz69PWNACkl-13" value="return" style="strokeWidth=2;html=1;shape=mxgraph.flowchart.terminator;whiteSpace=wrap;" vertex="1" parent="WIyWlLk6GJQsqaUBKTNV-1">
          <mxGeometry x="755" y="390" width="100" height="60" as="geometry" />
        </mxCell>
        <mxCell id="7OQRVRhavZz69PWNACkl-29" style="edgeStyle=orthogonalEdgeStyle;rounded=0;orthogonalLoop=1;jettySize=auto;html=1;entryX=0.5;entryY=0;entryDx=0;entryDy=0;" edge="1" parent="WIyWlLk6GJQsqaUBKTNV-1" source="7OQRVRhavZz69PWNACkl-14" target="7OQRVRhavZz69PWNACkl-3">
          <mxGeometry relative="1" as="geometry" />
        </mxCell>
        <mxCell id="7OQRVRhavZz69PWNACkl-14" value="detailLoop()" style="strokeWidth=2;html=1;shape=mxgraph.flowchart.terminator;whiteSpace=wrap;" vertex="1" parent="WIyWlLk6GJQsqaUBKTNV-1">
          <mxGeometry x="290" y="633" width="100" height="60" as="geometry" />
        </mxCell>
        <mxCell id="7OQRVRhavZz69PWNACkl-15" value="input hoursProjected" style="shape=parallelogram;perimeter=parallelogramPerimeter;whiteSpace=wrap;html=1;fixedSize=1;" vertex="1" parent="WIyWlLk6GJQsqaUBKTNV-1">
          <mxGeometry x="269" y="1080" width="140" height="60" as="geometry" />
        </mxCell>
        <mxCell id="7OQRVRhavZz69PWNACkl-16" value="return" style="strokeWidth=2;html=1;shape=mxgraph.flowchart.terminator;whiteSpace=wrap;" vertex="1" parent="WIyWlLk6GJQsqaUBKTNV-1">
          <mxGeometry x="290" y="1169" width="100" height="60" as="geometry" />
        </mxCell>
        <mxCell id="7OQRVRhavZz69PWNACkl-38" style="edgeStyle=orthogonalEdgeStyle;rounded=0;orthogonalLoop=1;jettySize=auto;html=1;" edge="1" parent="WIyWlLk6GJQsqaUBKTNV-1" source="7OQRVRhavZz69PWNACkl-17" target="7OQRVRhavZz69PWNACkl-19">
          <mxGeometry relative="1" as="geometry" />
        </mxCell>
        <mxCell id="7OQRVRhavZz69PWNACkl-17" value="endOfJob()" style="strokeWidth=2;html=1;shape=mxgraph.flowchart.terminator;whiteSpace=wrap;" vertex="1" parent="WIyWlLk6GJQsqaUBKTNV-1">
          <mxGeometry x="755" y="508" width="100" height="60" as="geometry" />
        </mxCell>
        <mxCell id="7OQRVRhavZz69PWNACkl-36" style="edgeStyle=orthogonalEdgeStyle;rounded=0;orthogonalLoop=1;jettySize=auto;html=1;exitX=0.5;exitY=1;exitDx=0;exitDy=0;entryX=0.5;entryY=0;entryDx=0;entryDy=0;" edge="1" parent="WIyWlLk6GJQsqaUBKTNV-1" source="7OQRVRhavZz69PWNACkl-18" target="7OQRVRhavZz69PWNACkl-2">
          <mxGeometry relative="1" as="geometry" />
        </mxCell>
        <mxCell id="7OQRVRhavZz69PWNACkl-18" value="output HEADING" style="shape=parallelogram;perimeter=parallelogramPerimeter;whiteSpace=wrap;html=1;fixedSize=1;" vertex="1" parent="WIyWlLk6GJQsqaUBKTNV-1">
          <mxGeometry x="745" y="220" width="120" height="60" as="geometry" />
        </mxCell>
        <mxCell id="7OQRVRhavZz69PWNACkl-19" value="output ENDLINE" style="shape=parallelogram;perimeter=parallelogramPerimeter;whiteSpace=wrap;html=1;fixedSize=1;" vertex="1" parent="WIyWlLk6GJQsqaUBKTNV-1">
          <mxGeometry x="745" y="590" width="120" height="60" as="geometry" />
        </mxCell>
        <mxCell id="7OQRVRhavZz69PWNACkl-20" value="return" style="strokeWidth=2;html=1;shape=mxgraph.flowchart.terminator;whiteSpace=wrap;" vertex="1" parent="WIyWlLk6GJQsqaUBKTNV-1">
          <mxGeometry x="755" y="680" width="100" height="60" as="geometry" />
        </mxCell>
        <mxCell id="7OQRVRhavZz69PWNACkl-22" style="edgeStyle=orthogonalEdgeStyle;rounded=0;orthogonalLoop=1;jettySize=auto;html=1;exitX=0.5;exitY=1;exitDx=0;exitDy=0;exitPerimeter=0;entryX=0.458;entryY=0;entryDx=0;entryDy=0;entryPerimeter=0;" edge="1" parent="WIyWlLk6GJQsqaUBKTNV-1" source="7OQRVRhavZz69PWNACkl-0" target="7OQRVRhavZz69PWNACkl-1">
          <mxGeometry relative="1" as="geometry" />
        </mxCell>
        <mxCell id="7OQRVRhavZz69PWNACkl-26" style="edgeStyle=orthogonalEdgeStyle;rounded=0;orthogonalLoop=1;jettySize=auto;html=1;entryX=0.5;entryY=0;entryDx=0;entryDy=0;entryPerimeter=0;" edge="1" parent="WIyWlLk6GJQsqaUBKTNV-1" source="7OQRVRhavZz69PWNACkl-9" target="7OQRVRhavZz69PWNACkl-11">
          <mxGeometry relative="1" as="geometry" />
        </mxCell>
        <mxCell id="7OQRVRhavZz69PWNACkl-28" value="" style="curved=1;endArrow=classic;html=1;rounded=0;" edge="1" parent="WIyWlLk6GJQsqaUBKTNV-1">
          <mxGeometry width="50" height="50" relative="1" as="geometry">
            <mxPoint x="400" y="570" as="sourcePoint" />
            <mxPoint x="160" y="480" as="targetPoint" />
            <Array as="points">
              <mxPoint x="500" y="570" />
              <mxPoint x="470" y="460" />
            </Array>
          </mxGeometry>
        </mxCell>
        <mxCell id="7OQRVRhavZz69PWNACkl-32" style="edgeStyle=orthogonalEdgeStyle;rounded=0;orthogonalLoop=1;jettySize=auto;html=1;exitX=0.5;exitY=1;exitDx=0;exitDy=0;entryX=0.558;entryY=-0.033;entryDx=0;entryDy=0;entryPerimeter=0;" edge="1" parent="WIyWlLk6GJQsqaUBKTNV-1" source="7OQRVRhavZz69PWNACkl-5" target="7OQRVRhavZz69PWNACkl-6">
          <mxGeometry relative="1" as="geometry" />
        </mxCell>
        <mxCell id="7OQRVRhavZz69PWNACkl-34" style="edgeStyle=orthogonalEdgeStyle;rounded=0;orthogonalLoop=1;jettySize=auto;html=1;exitX=0.5;exitY=1;exitDx=0;exitDy=0;entryX=0.5;entryY=0;entryDx=0;entryDy=0;entryPerimeter=0;" edge="1" parent="WIyWlLk6GJQsqaUBKTNV-1" source="7OQRVRhavZz69PWNACkl-15" target="7OQRVRhavZz69PWNACkl-16">
          <mxGeometry relative="1" as="geometry" />
        </mxCell>
        <mxCell id="7OQRVRhavZz69PWNACkl-37" style="edgeStyle=orthogonalEdgeStyle;rounded=0;orthogonalLoop=1;jettySize=auto;html=1;exitX=0.5;exitY=1;exitDx=0;exitDy=0;entryX=0.5;entryY=0;entryDx=0;entryDy=0;entryPerimeter=0;" edge="1" parent="WIyWlLk6GJQsqaUBKTNV-1" source="7OQRVRhavZz69PWNACkl-2" target="7OQRVRhavZz69PWNACkl-13">
          <mxGeometry relative="1" as="geometry" />
        </mxCell>
        <mxCell id="7OQRVRhavZz69PWNACkl-39" style="edgeStyle=orthogonalEdgeStyle;rounded=0;orthogonalLoop=1;jettySize=auto;html=1;entryX=0.5;entryY=0;entryDx=0;entryDy=0;entryPerimeter=0;" edge="1" parent="WIyWlLk6GJQsqaUBKTNV-1" source="7OQRVRhavZz69PWNACkl-19" target="7OQRVRhavZz69PWNACkl-20">
          <mxGeometry relative="1" as="geometry" />
        </mxCell>
        <mxCell id="7OQRVRhavZz69PWNACkl-40" value="No" style="text;html=1;align=center;verticalAlign=middle;whiteSpace=wrap;rounded=0;" vertex="1" parent="WIyWlLk6GJQsqaUBKTNV-1">
          <mxGeometry x="150" y="632.5" width="60" height="30" as="geometry" />
        </mxCell>
        <mxCell id="7OQRVRhavZz69PWNACkl-41" value="Yes" style="text;html=1;align=center;verticalAlign=middle;whiteSpace=wrap;rounded=0;" vertex="1" parent="WIyWlLk6GJQsqaUBKTNV-1">
          <mxGeometry x="209" y="530" width="60" height="30" as="geometry" />
        </mxCell>
      </root>
    </mxGraphModel>
  </diagram>
</mxfile>
